<svg xmlns="http://www.w3.org/2000/svg" id="mermaid-svg-eXYYXNtc4H3zxkgk" height="100%" width="100%" style="max-width:650px;" viewBox="-50 -10 650 690"><g></g><g><line id="actor57" x1="75" y1="5" x2="75" y2="679" class="actor-line" stroke-width="0.5px" stroke="#999"></line><rect x="0" y="0" fill="#eaeaea" stroke="#666" width="150" height="65" rx="3" ry="3" class="actor"></rect><text x="75" y="32.5" style="text-anchor: middle;" dominant-baseline="central" alignment-baseline="central" class="actor"><tspan x="75" dy="0">Collection Agent</tspan></text></g><g><line id="actor58" x1="275" y1="5" x2="275" y2="679" class="actor-line" stroke-width="0.5px" stroke="#999"></line><rect x="200" y="0" fill="#eaeaea" stroke="#666" width="150" height="65" rx="3" ry="3" class="actor"></rect><text x="275" y="32.5" style="text-anchor: middle;" dominant-baseline="central" alignment-baseline="central" class="actor"><tspan x="275" dy="0">AltoPay Biller</tspan></text></g><g><line id="actor59" x1="475" y1="5" x2="475" y2="679" class="actor-line" stroke-width="0.5px" stroke="#999"></line><rect x="400" y="0" fill="#eaeaea" stroke="#666" width="150" height="65" rx="3" ry="3" class="actor"></rect><text x="475" y="32.5" style="text-anchor: middle;" dominant-baseline="central" alignment-baseline="central" class="actor"><tspan x="475" dy="0">Biller</tspan></text></g><defs><marker id="arrowhead" refX="5" refY="2" markerWidth="6" markerHeight="4" orient="auto"><path d="M 0,0 V 4 L6,2 Z"></path></marker></defs><defs><marker id="crosshead" markerWidth="15" markerHeight="8" orient="auto" refX="16" refY="4"><path fill="black" stroke="#000000" style="stroke-dasharray: 0px, 0px;" stroke-width="1px" d="M 9,2 V 6 L16,4 Z"></path><path fill="none" stroke="#000000" style="stroke-dasharray: 0px, 0px;" stroke-width="1px" d="M 0,1 L 6,7 M 6,1 L 0,7"></path></marker></defs><g><text x="175" y="93" style="text-anchor: middle;" class="messageText">Payment Request</text><line x1="75" y1="100" x2="275" y2="100" class="messageLine0" stroke-width="2" stroke="black" style="fill: none;" marker-end="url(#arrowhead)"></line></g><g><text x="375" y="128" style="text-anchor: middle;" class="messageText">Payment Request</text><line x1="275" y1="135" x2="475" y2="135" class="messageLine0" stroke-width="2" stroke="black" style="fill: none;" marker-end="url(#arrowhead)"></line></g><g><text x="375" y="163" style="text-anchor: middle;" class="messageText">Payment Response</text><line x1="475" y1="170" x2="275" y2="170" class="messageLine0" stroke-width="2" stroke="black" style="fill: none;" marker-end="url(#arrowhead)"></line></g><g><text x="175" y="198" style="text-anchor: middle;" class="messageText">Payment Response</text><line x1="275" y1="205" x2="75" y2="205" class="messageLine0" stroke-width="2" stroke="black" style="fill: none;" marker-end="url(#arrowhead)"></line></g><g><rect x="300" y="215" fill="#EDF2AE" stroke="#666" width="150" height="90" rx="0" ry="0" class="note"></rect><text x="296" y="239" fill="black" class="noteText"><tspan x="316" fill="black">If Biller has not </tspan></text><text x="296" y="253" fill="black" class="noteText"><tspan x="316" fill="black">responded to a </tspan></text><text x="296" y="267" fill="black" class="noteText"><tspan x="316" fill="black">request for a long </tspan></text><text x="296" y="281" fill="black" class="noteText"><tspan x="316" fill="black">time, AltoPay Biller </tspan></text><text x="296" y="295" fill="black" class="noteText"><tspan x="316" fill="black">will send an Advice</tspan></text></g><g><text x="375" y="333" style="text-anchor: middle;" class="messageText">Advice Request</text><line x1="275" y1="340" x2="475" y2="340" class="messageLine0" stroke-width="2" stroke="black" style="fill: none;" marker-end="url(#arrowhead)"></line></g><g><text x="375" y="368" style="text-anchor: middle;" class="messageText">Advice Response</text><line x1="475" y1="375" x2="275" y2="375" class="messageLine0" stroke-width="2" stroke="black" style="fill: none;" marker-end="url(#arrowhead)"></line></g><g><text x="175" y="403" style="text-anchor: middle;" class="messageText">Payment Response</text><line x1="275" y1="410" x2="75" y2="410" class="messageLine0" stroke-width="2" stroke="black" style="fill: none;" marker-end="url(#arrowhead)"></line></g><g><rect x="100" y="420" fill="#EDF2AE" stroke="#666" width="150" height="104" rx="0" ry="0" class="note"></rect><text x="96" y="444" fill="black" class="noteText"><tspan x="116" fill="black">If AltoPay Biller has </tspan></text><text x="96" y="458" fill="black" class="noteText"><tspan x="116" fill="black">not responded to a </tspan></text><text x="96" y="472" fill="black" class="noteText"><tspan x="116" fill="black">request for a long </tspan></text><text x="96" y="486" fill="black" class="noteText"><tspan x="116" fill="black">time, Collection </tspan></text><text x="96" y="500" fill="black" class="noteText"><tspan x="116" fill="black">Agent will send an </tspan></text><text x="96" y="514" fill="black" class="noteText"><tspan x="116" fill="black">Advice</tspan></text></g><g><text x="175" y="552" style="text-anchor: middle;" class="messageText">Advice Request</text><line x1="75" y1="559" x2="275" y2="559" class="messageLine0" stroke-width="2" stroke="black" style="fill: none;" marker-end="url(#arrowhead)"></line></g><g><text x="175" y="587" style="text-anchor: middle;" class="messageText">Advice Response</text><line x1="275" y1="594" x2="75" y2="594" class="messageLine0" stroke-width="2" stroke="black" style="fill: none;" marker-end="url(#arrowhead)"></line></g><g><rect x="0" y="614" fill="#eaeaea" stroke="#666" width="150" height="65" rx="3" ry="3" class="actor"></rect><text x="75" y="646.5" style="text-anchor: middle;" dominant-baseline="central" alignment-baseline="central" class="actor"><tspan x="75" dy="0">Collection Agent</tspan></text></g><g><rect x="200" y="614" fill="#eaeaea" stroke="#666" width="150" height="65" rx="3" ry="3" class="actor"></rect><text x="275" y="646.5" style="text-anchor: middle;" dominant-baseline="central" alignment-baseline="central" class="actor"><tspan x="275" dy="0">AltoPay Biller</tspan></text></g><g><rect x="400" y="614" fill="#eaeaea" stroke="#666" width="150" height="65" rx="3" ry="3" class="actor"></rect><text x="475" y="646.5" style="text-anchor: middle;" dominant-baseline="central" alignment-baseline="central" class="actor"><tspan x="475" dy="0">Biller</tspan></text></g></svg>
